<?xml version="1.0" encoding="utf-8"?>
<!-- Generator: Adobe Illustrator 17.1.0, SVG Export Plug-In . SVG Version: 6.00 Build 0)  -->
<!DOCTYPE svg PUBLIC "-//W3C//DTD SVG 1.1//EN" "http://www.w3.org/Graphics/SVG/1.1/DTD/svg11.dtd">
<svg version="1.1" id="Layer_1" xmlns="http://www.w3.org/2000/svg" xmlns:xlink="http://www.w3.org/1999/xlink" x="0px" y="0px"
	 viewBox="122.9 -0.3 595.3 595.3" enable-background="new 122.9 -0.3 595.3 595.3" xml:space="preserve">
<path fill="#333333" d="M635.6,435c0-3.7-3.7-3.7-3.7-3.7c-7.4-18.6-100.5-44.6-107.9-44.6c-3.7,0-3.7,0-7.4,0
	c-11.2,3.7-26,14.9-55.8,40.9c-33.5-18.6-78.1-59.5-100.5-81.9c-22.3-29.8-52.1-70.7-63.2-104.2c37.2-29.8,48.4-44.6,52.1-59.5
	c0-7.4-14.9-104.2-33.5-115.3l-3.7-3.7c-11.2-3.7-29.8-14.9-48.4-11.2c-3.7,0-7.4,3.7-11.2,3.7c-11.2,11.2-40.9,29.8-55.8,55.8
	c-7.4,18.6-11.2,171.1,104.2,301.4s253,133.9,275.3,130.2l0,0h3.7c29.8-11.2,52.1-37.2,63.2-48.4C654.2,472.2,643,449.9,635.6,435z"
	/>
<rect x="122.9" y="-0.3" fill="none" width="595.3" height="595.3"/>
</svg>
